<?xml version="1.0" standalone="no"?>
<!DOCTYPE svg PUBLIC "-//W3C//DTD SVG 20010904//EN"
 "http://www.w3.org/TR/2001/REC-SVG-20010904/DTD/svg10.dtd">
<svg version="1.0" xmlns="http://www.w3.org/2000/svg"
 width="210.000000pt" height="210.000000pt" viewBox="0 0 210.000000 210.000000"
 preserveAspectRatio="xMidYMid meet">
<metadata>
Created by potrace 1.14, written by Peter Selinger 2001-2017
</metadata>
<g transform="translate(0.000000,210.000000) scale(0.100000,-0.100000)"
fill="#000000" stroke="none">
<path d="M102 1393 c-39 -8 -90 -67 -97 -115 -4 -24 -5 -141 -3 -260 3 -238 4
-242 72 -292 26 -20 41 -21 264 -21 130 0 246 2 256 5 29 7 82 63 94 99 7 19
10 116 9 259 -2 224 -2 227 -27 264 -41 62 -68 67 -322 66 -123 -1 -233 -3
-246 -5z"/>
<path d="M1124 1211 c-42 -52 -59 -155 -40 -236 2 -11 5 -25 5 -32 2 -25 53
-73 79 -73 l25 0 -20 23 c-21 23 -68 141 -52 131 5 -3 5 6 -1 20 -5 15 -6 26
-1 26 5 0 7 8 4 18 -2 10 11 47 30 83 32 62 32 65 13 65 -12 0 -31 -11 -42
-25z"/>
<path d="M1784 1229 c-3 -6 -2 -14 3 -18 13 -8 56 -91 47 -91 -4 0 -2 -6 3
-12 8 -11 11 -108 3 -115 -1 -2 -4 -7 -5 -13 -1 -5 -3 -11 -5 -12 -1 -2 -3
-12 -5 -22 -2 -10 -8 -22 -13 -25 -5 -3 -14 -16 -21 -28 -10 -20 -9 -23 9 -23
30 0 66 43 79 95 24 97 5 204 -46 253 -27 25 -39 27 -49 11z"/>
<path d="M850 1045 c0 -115 0 -116 23 -113 18 2 22 10 23 38 1 19 2 41 3 48 1
7 17 12 46 12 36 0 45 -4 46 -17 1 -10 2 -31 3 -48 1 -23 6 -30 21 -31 29 -1
37 6 25 21 -8 9 -8 15 0 20 7 4 7 12 0 26 -6 10 -7 19 -3 19 4 0 8 18 8 40 0
22 -4 40 -8 40 -4 0 -4 8 1 18 13 25 4 42 -22 42 -19 0 -23 -5 -23 -32 -1 -63
0 -63 -47 -63 -24 0 -44 2 -44 5 0 3 -1 10 -2 15 -1 6 -3 24 -4 40 -1 23 -6
31 -23 33 -23 3 -23 2 -23 -113z"/>
<path d="M1193 1096 c-29 -26 -37 -82 -16 -125 17 -35 67 -50 101 -32 26 14
35 14 27 1 -4 -6 5 -10 19 -10 26 0 26 0 26 90 0 89 -3 98 -35 90 -5 -1 -14
-2 -20 -1 -70 8 -79 7 -102 -13z m88 -25 c13 -2 26 -47 18 -67 -11 -30 -57
-40 -75 -17 -29 38 -6 96 35 88 9 -2 19 -4 22 -4z"/>
<path d="M1405 1112 c-6 -4 -9 -54 -9 -117 2 -165 2 -159 19 -145 12 10 15 10
15 0 0 -8 3 -10 7 -7 4 4 6 30 4 57 -2 46 9 64 24 40 10 -17 64 -11 84 9 25
25 45 92 30 102 -6 3 -9 8 -8 10 2 2 -4 14 -13 27 -17 25 -60 34 -95 21 -13
-5 -25 -4 -28 1 -7 12 -16 12 -30 2z m125 -66 c8 -23 7 -35 -5 -53 -27 -41
-84 -14 -81 38 3 35 13 44 50 44 20 0 28 -7 36 -29z"/>
<path d="M1622 1103 c-6 -14 -9 -221 -3 -255 0 -3 9 -5 19 -4 13 2 18 14 20
53 l3 51 29 -11 c40 -15 79 0 100 41 20 37 14 90 -14 117 -20 20 -76 28 -93
13 -10 -8 -17 -8 -25 0 -16 16 -26 15 -36 -5z m118 -43 c25 -25 26 -51 2 -70
-28 -23 -50 -23 -66 2 -19 29 -15 57 9 74 25 18 31 18 55 -6z"/>
<path d="M1916 1104 c-3 -8 -2 -22 3 -32 29 -56 59 -138 53 -147 -3 -5 -7 -17
-9 -25 -1 -8 -7 -16 -12 -18 -21 -7 -11 -32 13 -32 19 0 28 10 44 48 11 26 23
59 27 75 4 15 11 27 16 27 5 0 8 3 7 8 -1 7 15 51 32 82 7 14 5 19 -9 23 -22
5 -41 -5 -45 -24 -5 -34 -29 -90 -34 -84 -4 4 -14 27 -23 52 -16 49 -52 75
-63 47z"/>
</g>
</svg>
